<?xml version="1.0" encoding="UTF-8" standalone="no"?>
<svg
   width="188.74219pt"
   height="188.74219pt"
   viewBox="0 0 188.74219 188.74219"
   version="1.1"
   id="svg124"
   xmlns="http://www.w3.org/2000/svg"
   xmlns:svg="http://www.w3.org/2000/svg">
  <defs
     id="defs128" />
  <g
     id="g445"
     transform="translate(-21.687499,-155.62891)">
    <path
       fill-rule="nonzero"
       fill="#000000"
       fill-opacity="1"
       d="m 210.42969,250 c 0,52.12109 -42.25,94.37109 -94.3711,94.37109 -52.12109,0 -94.37109,-42.25 -94.37109,-94.37109 0,-52.12109 42.25,-94.37109 94.37109,-94.37109 52.1211,0 94.3711,42.25 94.3711,94.37109"
       id="path56" />
    <path
       fill-rule="nonzero"
       fill="#f1f0d9"
       fill-opacity="1"
       d="m 127.71484,266.14062 h -23.3125 l -7.207028,-22.30859 18.863278,-13.78516 18.86328,13.78516 z m 22.32813,-27.25 -0.33594,-17.3164 -17.17578,-12.55469 -16.47266,5.03125 -16.472652,-5.03125 -17.179688,12.55469 -0.332031,17.3164 -9.847657,14.20704 6.558594,20.3164 16.269532,5.66797 10.386722,13.8125 h 21.23047 l 10.39062,-13.8125 16.26562,-5.66797 6.5625,-20.3164 z m 0,0"
       id="path58" />
    <path
       fill-rule="nonzero"
       fill="#fcc82f"
       fill-opacity="1"
       d="m 94.515625,188.27344 17.968755,-3.59766 3.57421,18.08203 -17.968746,3.59375 z m 0,0"
       id="path60" />
    <path
       fill-rule="nonzero"
       fill="#0198ff"
       fill-opacity="1"
       d="m 72.675781,201.26562 15.234375,-10.24218 10.183594,15.32812 -15.238281,10.24219 z m 0,0"
       id="path62" />
    <path
       fill-rule="nonzero"
       fill="#f1f0d9"
       fill-opacity="1"
       d="m 51.128906,246.40625 3.574219,-18.08203 17.972656,3.59765 L 69.097656,250 Z m 0,0"
       id="path64" />
    <path
       fill-rule="nonzero"
       fill="#fd5211"
       fill-opacity="1"
       d="m 57.441406,221.67969 10.179688,-15.32813 15.234375,10.24219 -10.179688,15.32812 z m 0,0"
       id="path66" />
    <path
       fill-rule="nonzero"
       fill="#fcc82f"
       fill-opacity="1"
       d="M 54.703125,271.67187 51.125,253.59375 l 17.972656,-3.59766 3.574219,18.08203 z m 0,0"
       id="path68" />
    <path
       fill-rule="nonzero"
       fill="#0198ff"
       fill-opacity="1"
       d="M 67.617188,293.64453 57.4375,278.31641 72.675781,268.07422 82.855469,283.40234 Z m 0,0"
       id="path70" />
    <path
       fill-rule="nonzero"
       fill="#f1f0d9"
       fill-opacity="1"
       d="m 112.48438,315.32031 -17.972661,-3.59765 3.574219,-18.07813 17.972652,3.59766 z m 0,0"
       id="path72" />
    <path
       fill-rule="nonzero"
       fill="#fd5211"
       fill-opacity="1"
       d="m 87.910156,308.96875 -15.234375,-10.24219 10.175781,-15.32812 15.238282,10.24218 z m 0,0"
       id="path74" />
    <path
       fill-rule="nonzero"
       fill="#fcc82f"
       fill-opacity="1"
       d="m 137.60156,311.72656 -17.97265,3.59766 -3.57422,-18.08203 17.97265,-3.59375 z m 0,0"
       id="path76" />
    <path
       fill-rule="nonzero"
       fill="#0198ff"
       fill-opacity="1"
       d="m 159.4375,298.73437 -15.23828,10.24219 -10.17969,-15.32812 15.23828,-10.24219 z m 0,0"
       id="path78" />
    <path
       fill-rule="nonzero"
       fill="#f1f0d9"
       fill-opacity="1"
       d="m 180.98828,253.59766 -3.57422,18.07812 -17.97265,-3.59375 L 163.01562,250 Z m 0,0"
       id="path80" />
    <path
       fill-rule="nonzero"
       fill="#fd5211"
       fill-opacity="1"
       d="m 174.67187,278.32031 -10.17968,15.32813 -15.23438,-10.24219 10.17969,-15.32813 z m 0,0"
       id="path82" />
    <path
       fill-rule="nonzero"
       fill="#fcc82f"
       fill-opacity="1"
       d="m 177.41406,228.32812 3.57813,18.07813 -17.97266,3.59766 -3.57422,-18.07813 z m 0,0"
       id="path84" />
    <path
       fill-rule="nonzero"
       fill="#0198ff"
       fill-opacity="1"
       d="m 164.50391,206.35937 10.17968,15.32422 -15.23828,10.24219 -10.17969,-15.32812 z m 0,0"
       id="path86" />
    <path
       fill-rule="nonzero"
       fill="#f1f0d9"
       fill-opacity="1"
       d="m 119.63281,184.67969 17.97266,3.59375 -3.57422,18.08203 -17.97266,-3.59766 z m 0,0"
       id="path88" />
    <path
       fill-rule="nonzero"
       fill="#fd5211"
       fill-opacity="1"
       d="m 144.21094,191.03125 15.23828,10.24219 -10.17969,15.32812 -15.23828,-10.24219 z m 0,0"
       id="path90" />
    <path
       fill-rule="nonzero"
       fill="#ff808b"
       fill-opacity="1"
       d="m 103.49609,161.19922 h 25.1211 v 25.27344 h -25.1211 z m 0,0"
       id="path92" />
    <path
       fill-rule="nonzero"
       fill="#009545"
       fill-opacity="1"
       d="m 70.675781,172.79297 23.210938,-9.67188 9.613281,23.35157 -23.210938,9.66796 z m 0,0"
       id="path94" />
    <path
       fill-rule="nonzero"
       fill="#009545"
       fill-opacity="1"
       d="m 29.703125,227.69141 9.613281,-23.34766 23.210938,9.67187 -9.617188,23.34766 z m 0,0"
       id="path96" />
    <path
       fill-rule="nonzero"
       fill="#f1f0d9"
       fill-opacity="1"
       d="m 44.757812,196.14453 17.765626,-17.87109 17.765624,17.87109 -17.765624,17.87109 z m 0,0"
       id="path98" />
    <path
       fill-rule="nonzero"
       fill="#ff808b"
       fill-opacity="1"
       d="m 27.789062,237.36328 h 25.121094 v 25.27344 H 27.789062 Z m 0,0"
       id="path100" />
    <path
       fill-rule="nonzero"
       fill="#009545"
       fill-opacity="1"
       d="m 39.316406,295.65625 -9.613281,-23.35156 23.210937,-9.67188 9.613282,23.35156 z m 0,0"
       id="path102" />
    <path
       fill-rule="nonzero"
       fill="#009545"
       fill-opacity="1"
       d="M 93.886719,336.875 70.675781,327.19922 80.289062,303.85156 103.5,313.52344 Z m 0,0"
       id="path104" />
    <path
       fill-rule="nonzero"
       fill="#f1f0d9"
       fill-opacity="1"
       d="m 62.523438,321.72656 -17.761719,-17.86719 17.761719,-17.87109 17.761718,17.87109 z m 0,0"
       id="path106" />
    <path
       fill-rule="nonzero"
       fill="#ff808b"
       fill-opacity="1"
       d="m 128.61719,338.80469 h -25.1211 v -25.27344 h 25.1211 z m 0,0"
       id="path108" />
    <path
       fill-rule="nonzero"
       fill="#009545"
       fill-opacity="1"
       d="m 161.4375,327.20703 -23.21094,9.67188 -9.61328,-23.35157 23.21094,-9.67187 z m 0,0"
       id="path110" />
    <path
       fill-rule="nonzero"
       fill="#009545"
       fill-opacity="1"
       d="m 202.41016,272.30859 -9.61329,23.35157 -23.21093,-9.67188 9.61328,-23.35156 z m 0,0"
       id="path112" />
    <path
       fill-rule="nonzero"
       fill="#f1f0d9"
       fill-opacity="1"
       d="m 187.35937,303.85547 -17.76562,17.87109 -17.76172,-17.87109 17.76172,-17.86719 z m 0,0"
       id="path114" />
    <path
       fill-rule="nonzero"
       fill="#ff808b"
       fill-opacity="1"
       d="m 204.32812,262.63672 h -25.12109 v -25.27344 h 25.12109 z m 0,0"
       id="path116" />
    <path
       fill-rule="nonzero"
       fill="#009545"
       fill-opacity="1"
       d="m 192.80469,204.34766 9.61328,23.34765 -23.21094,9.67188 -9.61328,-23.34766 z m 0,0"
       id="path118" />
    <path
       fill-rule="nonzero"
       fill="#009545"
       fill-opacity="1"
       d="m 138.23437,163.125 23.21094,9.67187 -9.61328,23.35157 -23.21094,-9.67578 z m 0,0"
       id="path120" />
    <path
       fill-rule="nonzero"
       fill="#f1f0d9"
       fill-opacity="1"
       d="m 169.59375,178.26953 17.76172,17.87109 -17.76172,17.8711 -17.76563,-17.8711 z m 0,0"
       id="path122" />
  </g>
</svg>
