<?xml version="1.0" encoding="UTF-8" standalone="no"?>
<svg
   width="456.62503pt"
   height="188.74219pt"
   viewBox="0 0 456.62503 188.74219"
   version="1.1"
   id="svg124"
   sodipodi:docname="fifa-womens-world-cup-2023-seeklogo.ai"
   xmlns:inkscape="http://www.inkscape.org/namespaces/inkscape"
   xmlns:sodipodi="http://sodipodi.sourceforge.net/DTD/sodipodi-0.dtd"
   xmlns="http://www.w3.org/2000/svg"
   xmlns:svg="http://www.w3.org/2000/svg">
  <defs
     id="defs128" />
  <sodipodi:namedview
     id="namedview126"
     pagecolor="#505050"
     bordercolor="#eeeeee"
     borderopacity="1"
     inkscape:showpageshadow="0"
     inkscape:pageopacity="0"
     inkscape:pagecheckerboard="0"
     inkscape:deskcolor="#505050"
     inkscape:document-units="pt"
     showgrid="false" />
  <path
     fill-rule="nonzero"
     fill="#000000"
     fill-opacity="1"
     d="m 217.29297,161.80468 h 19.11328 v 6.3711 h -25.98828 v -16.60547 h 17.48828 c 1.29687,0 2.35156,-1.05469 2.35156,-2.36328 0,-1.3086 -1.05469,-2.36719 -2.35156,-2.36719 h -17.48828 v -6.37109 h 18.14062 c 4.67969,0 8.47657,3.8164 8.47657,8.52734 0,4.71094 -3.79688,8.53125 -8.47657,8.53125 h -11.26562 z m 0,0"
     id="path4" />
  <path
     fill-rule="nonzero"
     fill="#000000"
     fill-opacity="1"
     d="m 254.75781,162.41015 c -4.98437,0 -8.03125,-3.61719 -8.03125,-8.08594 0,-4.46875 3.04688,-8.08984 8.03125,-8.08984 4.98047,0 8.03125,3.62109 8.03125,8.08984 0,4.46875 -3.05078,8.08594 -8.03125,8.08594 m 0,-22.50781 c -9.4414,0 -15.21875,6.45703 -15.21875,14.42187 0,7.96485 5.77735,14.41797 15.21875,14.41797 9.44141,0 15.21875,-6.45312 15.21875,-14.41797 0,-7.96484 -5.77734,-14.42187 -15.21875,-14.42187"
     id="path6" />
  <path
     fill-rule="nonzero"
     fill="#000000"
     fill-opacity="1"
     d="m 279.07422,161.80468 h 19.11719 v 6.3711 h -25.98829 v -16.60547 h 17.48438 c 1.29687,0 2.35156,-1.05469 2.35156,-2.36328 0,-1.30469 -1.05469,-2.36719 -2.35156,-2.36719 h -17.48438 v -6.37109 h 18.13672 c 4.67969,0 8.47657,3.82031 8.47657,8.52734 0,4.71484 -3.79688,8.53125 -8.47657,8.53125 h -11.26562 z m 0,0"
     id="path8" />
  <path
     fill-rule="nonzero"
     fill="#000000"
     fill-opacity="1"
     d="m 330.77344,160.76562 c 0,4.09375 -3.625,7.41016 -8.08594,7.41016 h -17.97656 v -6.3711 h 17.15625 c 1.25781,0 2.27343,-1.02343 2.27343,-2.28906 0,-1.26172 -1.01562,-2.28906 -2.27343,-2.28906 h -17.15625 v -5.8086 h 17.15625 c 1.25781,0 2.27343,-1.02343 2.27343,-2.28906 0,-1.26172 -1.01562,-2.28515 -2.27343,-2.28515 h -17.15625 v -6.375 h 17.97656 c 4.46094,0 8.08594,3.32031 8.08594,7.41015 0,3.57813 -1.82032,5.58203 -4.46485,6.44531 2.64453,0.86329 4.46485,2.86329 4.46485,6.44141"
     id="path10" />
  <path
     fill-rule="nonzero"
     fill="#000000"
     fill-opacity="1"
     d="m 342.35937,142.01171 v -1.75781 h -9.28125 v 1.75781 h 3.57032 v 8.06641 h 2.03125 v -8.06641 z m 0,0"
     id="path12" />
  <path
     fill-rule="nonzero"
     fill="#000000"
     fill-opacity="1"
     d="m 354.00781,150.07812 v -9.82422 h -1.99609 l -3.2461,4.72266 -3.30468,-4.72266 0.008,3.38281 2.73437,3.51172 1.20313,0.0195 2.60547,-3.59765 v 6.50781 z m 0,0"
     id="path14" />
  <path
     fill-rule="nonzero"
     fill="#000000"
     fill-opacity="1"
     d="m 343.46484,150.07812 h 1.9961 v -9.82422 h -1.9961 z m 0,0"
     id="path16" />
  <path
     fill-rule="nonzero"
     fill="#000000"
     fill-opacity="1"
     d="m 239.5,92.832029 7.17187,-29.8711 h -4.17578 l -5.74218,23.91407 -6.53907,-23.91407 h -5.23437 l -6.54297,23.91407 -5.73828,-23.91407 h -4.17578 l 7.16797,29.8711 h 5.29296 l 6.61329,-24.17188 6.61328,24.17188 z m 0,0"
     id="path18" />
  <path
     fill-rule="nonzero"
     fill="#000000"
     fill-opacity="1"
     d="m 262.98828,89.242179 c -6.20312,0 -11.23437,-5.08203 -11.23437,-11.34765 0,-6.26563 5.03125,-11.34375 11.23437,-11.34375 6.20703,0 11.23828,5.07812 11.23828,11.34375 0,6.26562 -5.03125,11.34765 -11.23828,11.34765 m 0,-26.91015 c -8.64844,0 -15.65625,6.96875 -15.65625,15.5625 0,8.59765 7.01172,15.5664 15.65625,15.5664 8.64844,0 15.66016,-6.96875 15.66016,-15.5664 0,-8.59375 -7.01172,-15.5625 -15.66016,-15.5625"
     id="path20" />
  <path
     fill-rule="nonzero"
     fill="#000000"
     fill-opacity="1"
     d="m 286.45312,70.363279 v 22.46484 h -4.17578 v -29.86719 h 3.84375 l 10.79297,13.78516 10.78906,-13.78516 h 3.83985 v 29.86719 h -4.17578 v -22.45312 l -9.55469,11.88281 h -1.79688 z m 0,0"
     id="path22" />
  <path
     fill-rule="nonzero"
     fill="#000000"
     fill-opacity="1"
     d="m 340.03516,67.179679 v -4.21875 h -23.5586 v 21.69532 c 0,4.51562 3.6211,8.17578 8.08985,8.17578 h 15.46875 v -4.21875 h -14.94922 c -2.44922,0 -4.4375,-2.00782 -4.4375,-4.48438 v -4.29297 h 18.6914 v -4.21875 h -18.6914 v -8.4375 z m 0,0"
     id="path24" />
  <path
     fill-rule="nonzero"
     fill="#000000"
     fill-opacity="1"
     d="m 344.00781,62.960929 h 4.17578 l 18.39844,22.45703 v -22.45703 h 4.17969 v 29.86719 h -4.17969 l -18.39844,-22.45703 v 22.45703 h -4.17578 z m 0,0"
     id="path26" />
  <path
     fill-rule="nonzero"
     fill="#000000"
     fill-opacity="1"
     d="M 376.87891,62.960929 375.75,74.609369 h 3.39062 l 2.69922,-11.64844 z m 0,0"
     id="path28" />
  <path
     fill-rule="nonzero"
     fill="#000000"
     fill-opacity="1"
     d="m 413.68359,84.308589 c 0,4.70312 -3.77343,8.52344 -8.4375,8.52344 h -18.90234 v -4.21875 h 18.90234 c 2.35547,0 4.26172,-1.92578 4.26172,-4.30469 0,-2.37891 -1.90625,-4.30078 -4.26172,-4.30078 h -11.29687 c -4.66016,0 -8.4375,-3.82031 -8.4375,-8.52344 0,-4.70703 3.77734,-8.52344 8.4375,-8.52344 h 18.16406 v 4.21875 h -18.16406 c -2.35547,0 -4.26172,1.92578 -4.26172,4.30469 0,2.375 1.90625,4.30469 4.26172,4.30469 h 11.29687 c 4.66407,0 8.4375,3.8164 8.4375,8.51953"
     id="path30" />
  <path
     fill-rule="nonzero"
     fill="#000000"
     fill-opacity="1"
     d="m 236.75391,125.45703 -6.53907,-23.91016 h -5.23437 l -6.54297,23.91016 -5.73828,-23.91016 h -4.17578 l 7.17187,29.86719 h 5.28906 l 6.61329,-24.17188 6.60937,24.17188 H 239.5 l 7.17187,-29.86719 h -4.17968 z m 0,0"
     id="path32" />
  <path
     fill-rule="nonzero"
     fill="#000000"
     fill-opacity="1"
     d="m 262.98828,127.82812 c -6.20312,0 -11.23437,-5.08203 -11.23437,-11.34766 0,-6.26562 5.03125,-11.34375 11.23437,-11.34375 6.20703,0 11.23828,5.07813 11.23828,11.34375 0,6.26563 -5.03125,11.34766 -11.23828,11.34766 m 0,-26.91016 c -8.64844,0 -15.65625,6.96875 -15.65625,15.5625 0,8.59766 7.01172,15.56641 15.65625,15.56641 8.64844,0 15.66016,-6.96875 15.66016,-15.56641 0,-8.59765 -7.01172,-15.5625 -15.66016,-15.5625"
     id="path34" />
  <path
     fill-rule="nonzero"
     fill="#000000"
     fill-opacity="1"
     d="m 427.23437,101.54687 v 18.67969 c 0,6.52344 -6.10156,11.8125 -13.6289,11.8125 -7.52735,0 -13.62891,-5.28906 -13.62891,-11.8125 v -18.67969 h 4.17578 v 18.67969 c 0,4.1914 4.23438,7.59375 9.45313,7.59375 5.21875,0 9.45312,-3.40235 9.45312,-7.59375 v -18.67969 z m 0,0"
     id="path36" />
  <path
     fill-rule="nonzero"
     fill="#000000"
     fill-opacity="1"
     d="m 286.45312,114.47656 v -8.71094 h 12.53907 c 2.38281,0 4.3125,1.95313 4.3125,4.35938 0,2.40234 -1.92969,4.35156 -4.3125,4.35156 z m 6.61329,4.22265 h 5.92578 c 4.6875,0 8.48828,-3.83984 8.48828,-8.57421 0,-4.73829 -3.80078,-8.57813 -8.48828,-8.57813 h -16.71485 v 29.87109 h 4.17578 v -12.71875 h 0.47657 l 14.89062,12.71875 h 6.5586 z m 0,0"
     id="path38" />
  <path
     fill-rule="nonzero"
     fill="#000000"
     fill-opacity="1"
     d="m 319.42969,127.19921 c -2.44922,0 -4.4336,-2.00781 -4.4336,-4.48437 v -21.16797 h -4.17578 v 21.69531 c 0,4.51563 3.6211,8.17578 8.08985,8.17578 h 11.86328 v -4.21875 z m 0,0"
     id="path40" />
  <path
     fill-rule="nonzero"
     fill="#000000"
     fill-opacity="1"
     d="m 347.03125,127.19921 h -8.77734 v -21.43359 h 8.77734 c 5.85937,0 10.60937,4.80078 10.60937,10.71484 0,5.91797 -4.75,10.71485 -10.60937,10.71485 z m 0,-25.65234 h -12.95313 v 29.87109 h 12.95313 c 8.16406,0 14.78516,-6.6875 14.78516,-14.9375 0,-8.24609 -6.6211,-14.93359 -14.78516,-14.93359"
     id="path42" />
  <path
     fill-rule="nonzero"
     fill="#000000"
     fill-opacity="1"
     d="m 396.32422,127.19921 h -9.51172 c -5.85547,0 -10.60547,-4.80078 -10.60547,-10.71875 0,-5.91406 4.75,-10.71484 10.60547,-10.71484 h 9.51172 v -4.21875 h -9.51172 c -8.16406,0 -14.78125,6.6875 -14.78125,14.93359 0,8.25 6.61719,14.9375 14.78125,14.9375 h 9.51172 z m 0,0"
     id="path44" />
  <path
     fill-rule="nonzero"
     fill="#000000"
     fill-opacity="1"
     d="m 447.55859,115.65625 h -11.79687 v -9.89063 h 11.79687 c 2.70313,0 4.89063,2.21484 4.89063,4.94141 0,2.73437 -2.1875,4.94922 -4.89063,4.94922 m 0,-14.10938 h -15.97265 v 29.87109 h 4.17578 V 119.875 h 11.79687 c 5.01172,0 9.06641,-4.10547 9.06641,-9.16797 0,-5.0586 -4.05469,-9.16016 -9.06641,-9.16016"
     id="path46" />
  <path
     fill-rule="nonzero"
     fill="#000000"
     fill-opacity="1"
     d="m 238.60937,54.769529 h 10.79297 v -34.9375 h -10.78125 z m 0,0"
     id="path48" />
  <path
     fill-rule="nonzero"
     fill="#000000"
     fill-opacity="1"
     d="m 235.27734,19.832029 h -26.53515 v 34.96875 h 10.91797 v -12.64063 h 7.58593 l 2.96875,-7.63281 h -10.55468 v -7.08594 h 12.8125 z m 0,0"
     id="path50" />
  <path
     fill-rule="nonzero"
     fill="#000000"
     fill-opacity="1"
     d="m 291.74609,43.386709 4.17188,-14.5664 4.30859,14.5664 z m 9.95703,-23.55468 h -11.21093 l -12.42188,34.9375 H 288.5 l 1.33984,-4.69141 h 12.17188 l 1.41015,4.69141 h 10.73438 z m 0,0"
     id="path52" />
  <path
     fill-rule="nonzero"
     fill="#000000"
     fill-opacity="1"
     d="m 267.76562,27.425779 h 12.8125 l 2.83204,-7.60547 h -26.54688 v 34.94922 h 10.92969 v -12.6211 h 7.55859 l 2.96875,-7.63672 h -10.55469 z m 0,0"
     id="path54" />
  <g
     id="g445"
     inkscape:export-filename="g445.svg"
     inkscape:export-xdpi="96"
     inkscape:export-ydpi="96"
     transform="translate(-21.687499,-155.62891)">
    <path
       fill-rule="nonzero"
       fill="#000000"
       fill-opacity="1"
       d="m 210.42969,250 c 0,52.12109 -42.25,94.37109 -94.3711,94.37109 -52.12109,0 -94.37109,-42.25 -94.37109,-94.37109 0,-52.12109 42.25,-94.37109 94.37109,-94.37109 52.1211,0 94.3711,42.25 94.3711,94.37109"
       id="path56" />
    <path
       fill-rule="nonzero"
       fill="#f1f0d9"
       fill-opacity="1"
       d="m 127.71484,266.14062 h -23.3125 l -7.207028,-22.30859 18.863278,-13.78516 18.86328,13.78516 z m 22.32813,-27.25 -0.33594,-17.3164 -17.17578,-12.55469 -16.47266,5.03125 -16.472652,-5.03125 -17.179688,12.55469 -0.332031,17.3164 -9.847657,14.20704 6.558594,20.3164 16.269532,5.66797 10.386722,13.8125 h 21.23047 l 10.39062,-13.8125 16.26562,-5.66797 6.5625,-20.3164 z m 0,0"
       id="path58" />
    <path
       fill-rule="nonzero"
       fill="#fcc82f"
       fill-opacity="1"
       d="m 94.515625,188.27344 17.968755,-3.59766 3.57421,18.08203 -17.968746,3.59375 z m 0,0"
       id="path60" />
    <path
       fill-rule="nonzero"
       fill="#0198ff"
       fill-opacity="1"
       d="m 72.675781,201.26562 15.234375,-10.24218 10.183594,15.32812 -15.238281,10.24219 z m 0,0"
       id="path62" />
    <path
       fill-rule="nonzero"
       fill="#f1f0d9"
       fill-opacity="1"
       d="m 51.128906,246.40625 3.574219,-18.08203 17.972656,3.59765 L 69.097656,250 Z m 0,0"
       id="path64" />
    <path
       fill-rule="nonzero"
       fill="#fd5211"
       fill-opacity="1"
       d="m 57.441406,221.67969 10.179688,-15.32813 15.234375,10.24219 -10.179688,15.32812 z m 0,0"
       id="path66" />
    <path
       fill-rule="nonzero"
       fill="#fcc82f"
       fill-opacity="1"
       d="M 54.703125,271.67187 51.125,253.59375 l 17.972656,-3.59766 3.574219,18.08203 z m 0,0"
       id="path68" />
    <path
       fill-rule="nonzero"
       fill="#0198ff"
       fill-opacity="1"
       d="M 67.617188,293.64453 57.4375,278.31641 72.675781,268.07422 82.855469,283.40234 Z m 0,0"
       id="path70" />
    <path
       fill-rule="nonzero"
       fill="#f1f0d9"
       fill-opacity="1"
       d="m 112.48438,315.32031 -17.972661,-3.59765 3.574219,-18.07813 17.972652,3.59766 z m 0,0"
       id="path72" />
    <path
       fill-rule="nonzero"
       fill="#fd5211"
       fill-opacity="1"
       d="m 87.910156,308.96875 -15.234375,-10.24219 10.175781,-15.32812 15.238282,10.24218 z m 0,0"
       id="path74" />
    <path
       fill-rule="nonzero"
       fill="#fcc82f"
       fill-opacity="1"
       d="m 137.60156,311.72656 -17.97265,3.59766 -3.57422,-18.08203 17.97265,-3.59375 z m 0,0"
       id="path76" />
    <path
       fill-rule="nonzero"
       fill="#0198ff"
       fill-opacity="1"
       d="m 159.4375,298.73437 -15.23828,10.24219 -10.17969,-15.32812 15.23828,-10.24219 z m 0,0"
       id="path78" />
    <path
       fill-rule="nonzero"
       fill="#f1f0d9"
       fill-opacity="1"
       d="m 180.98828,253.59766 -3.57422,18.07812 -17.97265,-3.59375 L 163.01562,250 Z m 0,0"
       id="path80" />
    <path
       fill-rule="nonzero"
       fill="#fd5211"
       fill-opacity="1"
       d="m 174.67187,278.32031 -10.17968,15.32813 -15.23438,-10.24219 10.17969,-15.32813 z m 0,0"
       id="path82" />
    <path
       fill-rule="nonzero"
       fill="#fcc82f"
       fill-opacity="1"
       d="m 177.41406,228.32812 3.57813,18.07813 -17.97266,3.59766 -3.57422,-18.07813 z m 0,0"
       id="path84" />
    <path
       fill-rule="nonzero"
       fill="#0198ff"
       fill-opacity="1"
       d="m 164.50391,206.35937 10.17968,15.32422 -15.23828,10.24219 -10.17969,-15.32812 z m 0,0"
       id="path86" />
    <path
       fill-rule="nonzero"
       fill="#f1f0d9"
       fill-opacity="1"
       d="m 119.63281,184.67969 17.97266,3.59375 -3.57422,18.08203 -17.97266,-3.59766 z m 0,0"
       id="path88" />
    <path
       fill-rule="nonzero"
       fill="#fd5211"
       fill-opacity="1"
       d="m 144.21094,191.03125 15.23828,10.24219 -10.17969,15.32812 -15.23828,-10.24219 z m 0,0"
       id="path90" />
    <path
       fill-rule="nonzero"
       fill="#ff808b"
       fill-opacity="1"
       d="m 103.49609,161.19922 h 25.1211 v 25.27344 h -25.1211 z m 0,0"
       id="path92" />
    <path
       fill-rule="nonzero"
       fill="#009545"
       fill-opacity="1"
       d="m 70.675781,172.79297 23.210938,-9.67188 9.613281,23.35157 -23.210938,9.66796 z m 0,0"
       id="path94" />
    <path
       fill-rule="nonzero"
       fill="#009545"
       fill-opacity="1"
       d="m 29.703125,227.69141 9.613281,-23.34766 23.210938,9.67187 -9.617188,23.34766 z m 0,0"
       id="path96" />
    <path
       fill-rule="nonzero"
       fill="#f1f0d9"
       fill-opacity="1"
       d="m 44.757812,196.14453 17.765626,-17.87109 17.765624,17.87109 -17.765624,17.87109 z m 0,0"
       id="path98" />
    <path
       fill-rule="nonzero"
       fill="#ff808b"
       fill-opacity="1"
       d="m 27.789062,237.36328 h 25.121094 v 25.27344 H 27.789062 Z m 0,0"
       id="path100" />
    <path
       fill-rule="nonzero"
       fill="#009545"
       fill-opacity="1"
       d="m 39.316406,295.65625 -9.613281,-23.35156 23.210937,-9.67188 9.613282,23.35156 z m 0,0"
       id="path102" />
    <path
       fill-rule="nonzero"
       fill="#009545"
       fill-opacity="1"
       d="M 93.886719,336.875 70.675781,327.19922 80.289062,303.85156 103.5,313.52344 Z m 0,0"
       id="path104" />
    <path
       fill-rule="nonzero"
       fill="#f1f0d9"
       fill-opacity="1"
       d="m 62.523438,321.72656 -17.761719,-17.86719 17.761719,-17.87109 17.761718,17.87109 z m 0,0"
       id="path106" />
    <path
       fill-rule="nonzero"
       fill="#ff808b"
       fill-opacity="1"
       d="m 128.61719,338.80469 h -25.1211 v -25.27344 h 25.1211 z m 0,0"
       id="path108" />
    <path
       fill-rule="nonzero"
       fill="#009545"
       fill-opacity="1"
       d="m 161.4375,327.20703 -23.21094,9.67188 -9.61328,-23.35157 23.21094,-9.67187 z m 0,0"
       id="path110" />
    <path
       fill-rule="nonzero"
       fill="#009545"
       fill-opacity="1"
       d="m 202.41016,272.30859 -9.61329,23.35157 -23.21093,-9.67188 9.61328,-23.35156 z m 0,0"
       id="path112" />
    <path
       fill-rule="nonzero"
       fill="#f1f0d9"
       fill-opacity="1"
       d="m 187.35937,303.85547 -17.76562,17.87109 -17.76172,-17.87109 17.76172,-17.86719 z m 0,0"
       id="path114" />
    <path
       fill-rule="nonzero"
       fill="#ff808b"
       fill-opacity="1"
       d="m 204.32812,262.63672 h -25.12109 v -25.27344 h 25.12109 z m 0,0"
       id="path116" />
    <path
       fill-rule="nonzero"
       fill="#009545"
       fill-opacity="1"
       d="m 192.80469,204.34766 9.61328,23.34765 -23.21094,9.67188 -9.61328,-23.34766 z m 0,0"
       id="path118" />
    <path
       fill-rule="nonzero"
       fill="#009545"
       fill-opacity="1"
       d="m 138.23437,163.125 23.21094,9.67187 -9.61328,23.35157 -23.21094,-9.67578 z m 0,0"
       id="path120" />
    <path
       fill-rule="nonzero"
       fill="#f1f0d9"
       fill-opacity="1"
       d="m 169.59375,178.26953 17.76172,17.87109 -17.76172,17.8711 -17.76563,-17.8711 z m 0,0"
       id="path122" />
  </g>
</svg>
